<svg width="74" height="25" viewBox="0 0 74 25" fill="none" xmlns="http://www.w3.org/2000/svg">
<rect width="74" height="25" rx="7" fill="#0C0D10"/>
<path d="M50.2743 12.0006V13.4325H49.3887V14.3715H50.2743V17.5621C50.2743 18.6516 50.7606 19.0874 51.984 19.0874C52.199 19.0874 52.4037 19.0615 52.5829 19.0303V18.1017C52.4293 18.1172 52.3321 18.1276 52.1631 18.1276C51.6154 18.1276 51.3748 17.8682 51.3748 17.2768V14.3715H52.5829V13.4325H51.3748V12.0006H50.2743Z" fill="white"/>
<path d="M55.6994 19.1652C57.3272 19.1652 58.3254 18.0602 58.3254 16.2288C58.3254 14.4078 57.3221 13.2976 55.6994 13.2976C54.0716 13.2976 53.0683 14.4078 53.0683 16.2288C53.0683 18.0602 54.0665 19.1652 55.6994 19.1652ZM55.6994 18.1743C54.7422 18.1743 54.2047 17.4635 54.2047 16.2288C54.2047 15.0044 54.7422 14.2885 55.6994 14.2885C56.6515 14.2885 57.1941 15.0044 57.1941 16.2288C57.1941 17.4584 56.6515 18.1743 55.6994 18.1743Z" fill="white"/>
<path d="M59.1794 19.0563H60.2799V15.7204C60.2799 14.9266 60.8686 14.3923 61.703 14.3923C61.8975 14.3923 62.2251 14.4286 62.3172 14.4597V13.3599C62.1995 13.3287 61.9896 13.3132 61.8258 13.3132C61.0989 13.3132 60.4796 13.7178 60.3209 14.2729H60.239V13.4065H59.1794V19.0563Z" fill="white"/>
<path d="M65.0499 14.247C65.8637 14.247 66.3961 14.8229 66.4217 15.71H63.6063C63.6678 14.8281 64.236 14.247 65.0499 14.247ZM66.4166 17.531C66.2118 17.972 65.7563 18.2158 65.0908 18.2158C64.2104 18.2158 63.6422 17.5881 63.6063 16.5972V16.5349H67.5427V16.1458C67.5427 14.3715 66.606 13.2976 65.055 13.2976C63.4835 13.2976 62.4853 14.4441 62.4853 16.2496C62.4853 18.055 63.463 19.1652 65.0601 19.1652C66.3347 19.1652 67.2254 18.5427 67.4762 17.531H66.4166Z" fill="white"/>
<path d="M43.0571 16.9699C43.142 18.3572 44.2827 19.2445 45.9804 19.2445C47.7949 19.2445 48.9303 18.3142 48.9303 16.8301C48.9303 15.6633 48.283 15.018 46.7126 14.647L45.869 14.4372C44.8716 14.2007 44.4683 13.8834 44.4683 13.3295C44.4683 12.6305 45.0944 12.1734 46.0335 12.1734C46.9248 12.1734 47.5402 12.6198 47.6516 13.3349H48.8082C48.7393 12.0283 47.6039 11.1088 46.0494 11.1088C44.3782 11.1088 43.264 12.0283 43.264 13.4102C43.264 14.5502 43.8954 15.2277 45.2801 15.5557L46.2669 15.7977C47.2803 16.0397 47.7259 16.3945 47.7259 16.986C47.7259 17.6743 47.0256 18.1744 46.0706 18.1744C45.0466 18.1744 44.3357 17.7066 44.2349 16.9699H43.0571Z" fill="white"/>
<path d="M31.6566 13.3132C30.899 13.3132 30.2438 13.6971 29.9059 14.3404H29.824V13.4065H28.7644V20.9343H29.865V18.2002H29.952C30.2438 18.7969 30.8734 19.1496 31.6668 19.1496C33.0745 19.1496 33.9703 18.0239 33.9703 16.2288C33.9703 14.4338 33.0745 13.3132 31.6566 13.3132ZM31.3443 18.1484C30.4229 18.1484 29.8445 17.4117 29.8445 16.234C29.8445 15.0511 30.4229 14.3144 31.3494 14.3144C32.2811 14.3144 32.839 15.0356 32.839 16.2288C32.839 17.4272 32.2811 18.1484 31.3443 18.1484Z" fill="white"/>
<path d="M37.8213 13.3132C37.0637 13.3132 36.4085 13.6971 36.0706 14.3404H35.9887V13.4065H34.9291V20.9343H36.0297V18.2002H36.1167C36.4085 18.7969 37.0381 19.1496 37.8315 19.1496C39.2392 19.1496 40.135 18.0239 40.135 16.2288C40.135 14.4338 39.2392 13.3132 37.8213 13.3132ZM37.509 18.1484C36.5876 18.1484 36.0092 17.4117 36.0092 16.234C36.0092 15.0511 36.5876 14.3144 37.5141 14.3144C38.4457 14.3144 39.0037 15.0356 39.0037 16.2288C39.0037 17.4272 38.4457 18.1484 37.509 18.1484Z" fill="white"/>
<path d="M26.7899 19.0563H28.0526L25.2884 11.297H24.0098L21.2456 19.0563H22.4659L23.1715 16.9968H26.0895L26.7899 19.0563ZM24.5881 12.7058H24.6783L25.7871 15.9859H23.4739L24.5881 12.7058Z" fill="white"/>
<path d="M21.9849 5.44431V9.18744H23.3183C24.4189 9.18744 25.0562 8.50003 25.0562 7.3042C25.0562 6.12653 24.4137 5.44431 23.3183 5.44431H21.9849ZM22.5582 5.97348H23.2543C24.0196 5.97348 24.4726 6.46634 24.4726 7.31198C24.4726 8.17059 24.0273 8.65826 23.2543 8.65826H22.5582V5.97348Z" fill="white"/>
<path d="M27.008 9.24191C27.8218 9.24191 28.3209 8.68939 28.3209 7.77371C28.3209 6.86322 27.8193 6.30811 27.008 6.30811C26.1941 6.30811 25.6924 6.86322 25.6924 7.77371C25.6924 8.68939 26.1915 9.24191 27.008 9.24191ZM27.008 8.74646C26.5293 8.74646 26.2606 8.39108 26.2606 7.77371C26.2606 7.16153 26.5293 6.80356 27.008 6.80356C27.484 6.80356 27.7553 7.16153 27.7553 7.77371C27.7553 8.38849 27.484 8.74646 27.008 8.74646Z" fill="white"/>
<path d="M32.5711 6.36258H32.0208L31.5243 8.51819H31.4808L30.9075 6.36258H30.3802L29.8069 8.51819H29.766L29.2669 6.36258H28.7089L29.4768 9.18744H30.0424L30.6157 7.10706H30.6592L31.2351 9.18744H31.8058L32.5711 6.36258Z" fill="white"/>
<path d="M33.2048 9.18744H33.7551V7.53506C33.7551 7.09409 34.0136 6.81912 34.4205 6.81912C34.8275 6.81912 35.022 7.0448 35.022 7.49875V9.18744H35.5722V7.35867C35.5722 6.68683 35.2293 6.30811 34.6073 6.30811C34.1876 6.30811 33.9112 6.49747 33.7755 6.81134H33.7346V6.36258H33.2048V9.18744Z" fill="white"/>
<path d="M36.4389 9.18744H36.9891V5.26013H36.4389V9.18744Z" fill="white"/>
<path d="M39.0587 9.24191C39.8726 9.24191 40.3716 8.68939 40.3716 7.77371C40.3716 6.86322 39.87 6.30811 39.0587 6.30811C38.2448 6.30811 37.7431 6.86322 37.7431 7.77371C37.7431 8.68939 38.2422 9.24191 39.0587 9.24191ZM39.0587 8.74646C38.5801 8.74646 38.3113 8.39108 38.3113 7.77371C38.3113 7.16153 38.5801 6.80356 39.0587 6.80356C39.5347 6.80356 39.806 7.16153 39.806 7.77371C39.806 8.38849 39.5347 8.74646 39.0587 8.74646Z" fill="white"/>
<path d="M42.0112 8.76462C41.7118 8.76462 41.4942 8.61676 41.4942 8.36255C41.4942 8.11353 41.6682 7.98123 42.0522 7.95529L42.733 7.91119V8.14725C42.733 8.49744 42.4258 8.76462 42.0112 8.76462ZM41.8704 9.23413C42.2364 9.23413 42.541 9.0733 42.7074 8.79056H42.7509V9.18744H43.2807V7.25751C43.2807 6.66089 42.8865 6.30811 42.1878 6.30811C41.5556 6.30811 41.1052 6.61938 41.0489 7.10446H41.5812C41.6426 6.90472 41.8551 6.79059 42.1622 6.79059C42.5384 6.79059 42.733 6.9592 42.733 7.25751V7.50134L41.9779 7.54544C41.315 7.58694 40.9414 7.88007 40.9414 8.38849C40.9414 8.90469 41.333 9.23413 41.8704 9.23413Z" fill="white"/>
<path d="M45.148 9.23413C45.5319 9.23413 45.857 9.04996 46.0233 8.74127H46.0668V9.18744H46.5941V5.26013H46.0438V6.81134H46.0029C45.8518 6.50006 45.5294 6.31589 45.148 6.31589C44.4442 6.31589 43.9912 6.88138 43.9912 7.77371C43.9912 8.66864 44.4391 9.23413 45.148 9.23413ZM45.3041 6.81653C45.7648 6.81653 46.054 7.18747 46.054 7.77631C46.054 8.36774 45.7674 8.73349 45.3041 8.73349C44.8383 8.73349 44.5593 8.37292 44.5593 7.77371C44.5593 7.17969 44.8409 6.81653 45.3041 6.81653Z" fill="white"/>
<path d="M50.1624 9.24191C50.9763 9.24191 51.4754 8.68939 51.4754 7.77371C51.4754 6.86322 50.9737 6.30811 50.1624 6.30811C49.3485 6.30811 48.8469 6.86322 48.8469 7.77371C48.8469 8.68939 49.346 9.24191 50.1624 9.24191ZM50.1624 8.74646C49.6838 8.74646 49.4151 8.39108 49.4151 7.77371C49.4151 7.16153 49.6838 6.80356 50.1624 6.80356C50.6385 6.80356 50.9097 7.16153 50.9097 7.77371C50.9097 8.38849 50.6385 8.74646 50.1624 8.74646Z" fill="white"/>
<path d="M52.2038 9.18744H52.7541V7.53506C52.7541 7.09409 53.0126 6.81912 53.4195 6.81912C53.8265 6.81912 54.021 7.0448 54.021 7.49875V9.18744H54.5712V7.35867C54.5712 6.68683 54.2283 6.30811 53.6063 6.30811C53.1866 6.30811 52.9102 6.49747 52.7745 6.81134H52.7336V6.36258H52.2038V9.18744Z" fill="white"/>
<path d="M57.1056 5.65961V6.37555H56.6628V6.84506H57.1056V8.44037C57.1056 8.98511 57.3487 9.203 57.9604 9.203C58.0679 9.203 58.1703 9.19003 58.2599 9.17447V8.71014C58.1831 8.71793 58.1344 8.72311 58.05 8.72311C57.7761 8.72311 57.6558 8.59341 57.6558 8.2977V6.84506H58.2599V6.37555H57.6558V5.65961H57.1056Z" fill="white"/>
<path d="M58.9985 9.18744H59.5488V7.53766C59.5488 7.10965 59.7996 6.82172 60.25 6.82172C60.6391 6.82172 60.8464 7.04999 60.8464 7.50134V9.18744H61.3967V7.36386C61.3967 6.69202 61.0307 6.3107 60.4369 6.3107C60.0171 6.3107 59.7228 6.50006 59.5872 6.81653H59.5437V5.26013H58.9985V9.18744Z" fill="white"/>
<path d="M63.3817 6.78281C63.7887 6.78281 64.0549 7.07074 64.0677 7.51431H62.66C62.6907 7.07333 62.9748 6.78281 63.3817 6.78281ZM64.0651 8.4248C63.9627 8.64529 63.7349 8.76721 63.4022 8.76721C62.962 8.76721 62.6779 8.45334 62.66 7.95789V7.92676H64.6282V7.73221C64.6282 6.84506 64.1598 6.30811 63.3843 6.30811C62.5986 6.30811 62.0995 6.88138 62.0995 7.78409C62.0995 8.6868 62.5883 9.24191 63.3869 9.24191C64.0242 9.24191 64.4695 8.93063 64.5949 8.4248H64.0651Z" fill="white"/>
<path d="M15.2742 12.688C15.2876 11.6374 15.8443 10.6433 16.7274 10.093C16.1703 9.28655 15.2371 8.77524 14.2662 8.74445C13.2307 8.63429 12.2268 9.37247 11.6991 9.37247C11.1612 9.37247 10.3487 8.75539 9.47384 8.77364C8.33347 8.81098 7.27036 9.46809 6.71554 10.4786C5.52291 12.5713 6.41251 15.647 7.55495 17.3386C8.12654 18.1669 8.79456 19.0922 9.66865 19.0594C10.524 19.0235 10.8435 18.5066 11.876 18.5066C12.8989 18.5066 13.1986 19.0594 14.0904 19.0386C15.0082 19.0235 15.5865 18.2065 16.138 17.3703C16.5487 16.7801 16.8648 16.1278 17.0744 15.4375C15.9958 14.9752 15.2755 13.875 15.2742 12.688Z" fill="white"/>
<path d="M13.5897 7.63195C14.0901 7.02307 14.3367 6.24046 14.277 5.45032C13.5124 5.53171 12.8062 5.90205 12.299 6.48757C11.803 7.05966 11.5449 7.8285 11.5937 8.58844C12.3585 8.59642 13.1104 8.23611 13.5897 7.63195Z" fill="white"/>
</svg>
