<svg width="84" height="25" viewBox="0 0 84 25" fill="none" xmlns="http://www.w3.org/2000/svg">
<rect width="84" height="25" rx="5" fill="black"/>
<path d="M42.3957 13.5944C40.9323 13.5944 39.7395 14.7125 39.7395 16.2525C39.7395 17.7832 40.9323 18.9107 42.3957 18.9107C43.8598 18.9107 45.0526 17.7832 45.0526 16.2525C45.052 14.7125 43.8592 13.5944 42.3957 13.5944ZM42.3957 17.8644C41.5937 17.8644 40.9024 17.2 40.9024 16.2532C40.9024 15.2963 41.5943 14.6419 42.3957 14.6419C43.1978 14.6419 43.8891 15.2963 43.8891 16.2532C43.8891 17.1994 43.1978 17.8644 42.3957 17.8644ZM36.6003 13.5944C35.1369 13.5944 33.9441 14.7125 33.9441 16.2525C33.9441 17.7832 35.1369 18.9107 36.6003 18.9107C38.0644 18.9107 39.2572 17.7832 39.2572 16.2525C39.2572 14.7125 38.0644 13.5944 36.6003 13.5944ZM36.6003 17.8644C35.7983 17.8644 35.107 17.2 35.107 16.2532C35.107 15.2963 35.7989 14.6419 36.6003 14.6419C37.4024 14.6419 38.0937 15.2963 38.0937 16.2532C38.0943 17.1994 37.4024 17.8644 36.6003 17.8644ZM29.7074 14.4107V15.5382H32.3941C32.3139 16.1725 32.1035 16.6357 31.7825 16.9575C31.3917 17.35 30.7801 17.7832 29.7074 17.7832C28.0535 17.7832 26.7605 16.4438 26.7605 14.7825C26.7605 13.1213 28.0535 11.7819 29.7074 11.7819C30.5996 11.7819 31.2511 12.1344 31.7321 12.5875L32.5242 11.7919C31.8522 11.1475 30.9605 10.6544 29.7074 10.6544C27.4419 10.6544 25.5372 12.5069 25.5372 14.7825C25.5372 17.0582 27.4419 18.9107 29.7074 18.9107C30.93 18.9107 31.8528 18.5075 32.574 17.7525C33.3156 17.0075 33.5465 15.96 33.5465 15.1144C33.5465 14.8532 33.5266 14.6113 33.4861 14.41H29.7074V14.4107ZM57.899 15.2863C57.6788 14.6925 57.0068 13.5944 55.6335 13.5944C54.2702 13.5944 53.1372 14.6719 53.1372 16.2525C53.1372 17.7425 54.2603 18.9107 55.7636 18.9107C56.9763 18.9107 57.6781 18.1657 57.9693 17.7325L57.0671 17.1282C56.7666 17.5713 56.3553 17.8632 55.7636 17.8632C55.1724 17.8632 54.7512 17.5913 54.4805 17.0575L58.0191 15.5875L57.899 15.2863ZM54.2901 16.1725C54.2603 15.145 55.0822 14.6219 55.674 14.6219C56.135 14.6219 56.5258 14.8538 56.6564 15.1857L54.2901 16.1725ZM51.4136 18.75H52.5759V10.9369H51.4136V18.75ZM49.5084 14.1888H49.4685C49.2078 13.8763 48.7063 13.5944 48.0754 13.5944C46.7519 13.5944 45.5392 14.7625 45.5392 16.2632C45.5392 17.7532 46.7519 18.9113 48.0754 18.9113C48.7069 18.9113 49.2078 18.6294 49.4685 18.3075H49.5084V18.69C49.5084 19.7069 48.967 20.2507 48.0953 20.2507C47.3835 20.2507 46.9423 19.7375 46.7619 19.3044L45.7495 19.7275C46.0401 20.4319 46.8116 21.2982 48.0953 21.2982C49.4586 21.2982 50.6115 20.4925 50.6115 18.5288V13.7563H49.509V14.1888H49.5084ZM48.1756 17.8644C47.3735 17.8644 46.7021 17.1894 46.7021 16.2632C46.7021 15.3263 47.3735 14.6419 48.1756 14.6419C48.967 14.6419 49.5886 15.3263 49.5886 16.2632C49.5886 17.1894 48.967 17.8644 48.1756 17.8644ZM63.346 10.9369H60.564V18.75H61.7244V15.79H63.3453C64.6321 15.79 65.8977 14.8544 65.8977 13.3638C65.8977 11.8732 64.6327 10.9369 63.346 10.9369ZM63.3758 14.7025H61.7244V12.0244H63.3758C64.2438 12.0244 64.7366 12.7463 64.7366 13.3638C64.7366 13.9688 64.2438 14.7025 63.3758 14.7025ZM70.5513 13.5807C69.7107 13.5807 68.8402 13.9525 68.4799 14.7769L69.5103 15.2088C69.7306 14.7769 70.1412 14.6357 70.5712 14.6357C71.1716 14.6357 71.782 14.9975 71.792 15.6407V15.7213C71.5817 15.6007 71.1312 15.42 70.5812 15.42C69.4705 15.42 68.3393 16.0332 68.3393 17.1788C68.3393 18.2244 69.2502 18.8975 70.2707 18.8975C71.0509 18.8975 71.4815 18.5457 71.7516 18.1332H71.7914V18.7363H72.9126V15.7407C72.9132 14.3544 71.8816 13.5807 70.5513 13.5807ZM70.4107 17.8625C70.0311 17.8625 69.5004 17.6713 69.5004 17.1988C69.5004 16.5957 70.1612 16.3644 70.7317 16.3644C71.2413 16.3644 71.4821 16.475 71.792 16.6257C71.7018 17.35 71.0814 17.8625 70.4107 17.8625ZM76.9956 13.7513L75.6647 17.1388H75.6249L74.2436 13.7513H72.9929L75.0643 18.4857L73.8833 21.1194H75.0941L78.2867 13.7513H76.9956ZM66.5386 18.75H67.699V10.9369H66.5386V18.75Z" fill="white"/>
<path d="M29.5046 6.40187C29.5046 6.92562 29.3503 7.34249 29.041 7.65374C28.6901 8.02374 28.2321 8.20875 27.6696 8.20875C27.1308 8.20875 26.6722 8.02124 26.2958 7.64624C25.9187 7.27062 25.7302 6.80562 25.7302 6.25062C25.7302 5.69499 25.9187 5.22999 26.2958 4.855C26.6722 4.47937 27.1308 4.29187 27.6696 4.29187C27.9372 4.29187 28.1929 4.34437 28.4356 4.44875C28.6789 4.55375 28.8736 4.69312 29.0192 4.8675L28.6913 5.1975C28.4443 4.90062 28.1039 4.7525 27.669 4.7525C27.2758 4.7525 26.936 4.89125 26.6492 5.16875C26.3623 5.44625 26.2192 5.80687 26.2192 6.25C26.2192 6.69312 26.3623 7.05374 26.6492 7.33124C26.936 7.60874 27.2758 7.74749 27.669 7.74749C28.0859 7.74749 28.4337 7.60812 28.7119 7.32874C28.8923 7.14687 28.9968 6.89374 29.0248 6.56937H27.669V6.11875H29.4778C29.4965 6.21687 29.5046 6.31125 29.5046 6.40187Z" fill="white"/>
<path d="M32.3731 4.83566H30.6732V6.02441H32.2063V6.47503H30.6732V7.66378H32.3731V8.12503H30.1934V4.37503H32.3731V4.83566Z" fill="white"/>
<path d="M34.3958 8.12503H33.9161V4.83566H32.8733V4.37503H35.4387V4.83566H34.3958V8.12503Z" fill="white"/>
<path d="M37.2947 8.12503V4.37503H37.7745V8.12503H37.2947Z" fill="white"/>
<path d="M39.902 8.12503H39.4222V4.83566H38.3794V4.37503H40.9448V4.83566H39.902V8.12503Z" fill="white"/>
<path d="M45.8011 7.64065C45.434 8.0194 44.9779 8.20877 44.4322 8.20877C43.8865 8.20877 43.4304 8.0194 43.064 7.64065C42.6968 7.2619 42.5139 6.79815 42.5139 6.25002C42.5139 5.7019 42.6968 5.23815 43.064 4.8594C43.4304 4.48065 43.8865 4.29065 44.4322 4.29065C44.9748 4.29065 45.4303 4.48127 45.7986 4.8619C46.167 5.24252 46.3512 5.70502 46.3512 6.25002C46.3512 6.79815 46.1676 7.2619 45.8011 7.64065ZM43.418 7.32627C43.6943 7.60752 44.0321 7.74752 44.4322 7.74752C44.8323 7.74752 45.1708 7.6069 45.4464 7.32627C45.7227 7.04502 45.8615 6.68627 45.8615 6.25002C45.8615 5.81377 45.7227 5.45502 45.4464 5.17377C45.1708 4.89252 44.8323 4.75252 44.4322 4.75252C44.0321 4.75252 43.6943 4.89315 43.418 5.17377C43.1424 5.45502 43.0036 5.81377 43.0036 6.25002C43.0036 6.68627 43.1424 7.04502 43.418 7.32627Z" fill="white"/>
<path d="M47.0244 8.12503V4.37503H47.6081L49.4225 7.29191H49.443L49.4225 6.56941V4.37503H49.9022V8.12503H49.4013L47.5029 5.06628H47.4824L47.5029 5.78878V8.12503H47.0244Z" fill="white"/>
<path d="M29.5046 6.40187C29.5046 6.92562 29.3503 7.34249 29.041 7.65374C28.6901 8.02374 28.2321 8.20875 27.6696 8.20875C27.1308 8.20875 26.6722 8.02124 26.2958 7.64624C25.9187 7.27062 25.7302 6.80562 25.7302 6.25062C25.7302 5.69499 25.9187 5.22999 26.2958 4.855C26.6722 4.47937 27.1308 4.29187 27.6696 4.29187C27.9372 4.29187 28.1929 4.34437 28.4356 4.44875C28.6789 4.55375 28.8736 4.69312 29.0192 4.8675L28.6913 5.1975C28.4443 4.90062 28.1039 4.7525 27.669 4.7525C27.2758 4.7525 26.936 4.89125 26.6492 5.16875C26.3623 5.44625 26.2192 5.80687 26.2192 6.25C26.2192 6.69312 26.3623 7.05374 26.6492 7.33124C26.936 7.60874 27.2758 7.74749 27.669 7.74749C28.0859 7.74749 28.4337 7.60812 28.7119 7.32874C28.8923 7.14687 28.9968 6.89374 29.0248 6.56937H27.669V6.11875H29.4778C29.4965 6.21687 29.5046 6.31125 29.5046 6.40187Z" stroke="white" stroke-width="0.2" stroke-miterlimit="10"/>
<path d="M32.3731 4.83566H30.6732V6.02441H32.2063V6.47503H30.6732V7.66378H32.3731V8.12503H30.1934V4.37503H32.3731V4.83566Z" stroke="white" stroke-width="0.2" stroke-miterlimit="10"/>
<path d="M34.3958 8.12503H33.9161V4.83566H32.8733V4.37503H35.4387V4.83566H34.3958V8.12503Z" stroke="white" stroke-width="0.2" stroke-miterlimit="10"/>
<path d="M37.2947 8.12503V4.37503H37.7745V8.12503H37.2947Z" stroke="white" stroke-width="0.2" stroke-miterlimit="10"/>
<path d="M39.902 8.12503H39.4222V4.83566H38.3794V4.37503H40.9448V4.83566H39.902V8.12503Z" stroke="white" stroke-width="0.2" stroke-miterlimit="10"/>
<path d="M45.8011 7.64065C45.434 8.0194 44.9779 8.20877 44.4322 8.20877C43.8865 8.20877 43.4304 8.0194 43.064 7.64065C42.6968 7.2619 42.5139 6.79815 42.5139 6.25002C42.5139 5.7019 42.6968 5.23815 43.064 4.8594C43.4304 4.48065 43.8865 4.29065 44.4322 4.29065C44.9748 4.29065 45.4303 4.48127 45.7986 4.8619C46.167 5.24252 46.3512 5.70502 46.3512 6.25002C46.3512 6.79815 46.1676 7.2619 45.8011 7.64065ZM43.418 7.32627C43.6943 7.60752 44.0321 7.74752 44.4322 7.74752C44.8323 7.74752 45.1708 7.6069 45.4464 7.32627C45.7227 7.04502 45.8615 6.68627 45.8615 6.25002C45.8615 5.81377 45.7227 5.45502 45.4464 5.17377C45.1708 4.89252 44.8323 4.75252 44.4322 4.75252C44.0321 4.75252 43.6943 4.89315 43.418 5.17377C43.1424 5.45502 43.0036 5.81377 43.0036 6.25002C43.0036 6.68627 43.1424 7.04502 43.418 7.32627Z" stroke="white" stroke-width="0.2" stroke-miterlimit="10"/>
<path d="M47.0244 8.12503V4.37503H47.6081L49.4225 7.29191H49.443L49.4225 6.56941V4.37503H49.9022V8.12503H49.4013L47.5029 5.06628H47.4824L47.5029 5.78878V8.12503H47.0244Z" stroke="white" stroke-width="0.2" stroke-miterlimit="10"/>
<g filter="url(#filter0_ii_1_2798)">
<path d="M6.49351 4.71127C6.31244 4.90377 6.20542 5.20252 6.20542 5.5894V19.4119C6.20542 19.7994 6.31244 20.0975 6.49351 20.29L6.53955 20.335L14.2483 12.5919V12.5006V12.4094L6.53955 4.66565L6.49351 4.71127Z" fill="url(#paint0_linear_1_2798)"/>
<path d="M16.8174 15.1738L14.2483 12.5919V12.5006V12.4094L16.818 9.82813L16.8759 9.86125L19.9204 11.5988C20.7897 12.095 20.7897 12.9069 19.9204 13.4037L16.8759 15.1413L16.8174 15.1738Z" fill="url(#paint1_linear_1_2798)"/>
<g filter="url(#filter1_i_1_2798)">
<path d="M16.8759 15.1407L14.2476 12.5007L6.49351 20.2901C6.77973 20.5951 7.25324 20.6326 7.78649 20.3289L16.8759 15.1407Z" fill="url(#paint2_linear_1_2798)"/>
</g>
<path d="M16.8759 9.86068L7.78649 4.67318C7.25324 4.36881 6.77973 4.40693 6.49351 4.71193L14.2483 12.5013L16.8759 9.86068Z" fill="url(#paint3_linear_1_2798)"/>
</g>
<defs>
<filter id="filter0_ii_1_2798" x="6.20542" y="4.46313" width="14.367" height="16.0756" filterUnits="userSpaceOnUse" color-interpolation-filters="sRGB">
<feFlood flood-opacity="0" result="BackgroundImageFix"/>
<feBlend mode="normal" in="SourceGraphic" in2="BackgroundImageFix" result="shape"/>
<feColorMatrix in="SourceAlpha" type="matrix" values="0 0 0 0 0 0 0 0 0 0 0 0 0 0 0 0 0 0 127 0" result="hardAlpha"/>
<feOffset dy="-0.15"/>
<feComposite in2="hardAlpha" operator="arithmetic" k2="-1" k3="1"/>
<feColorMatrix type="matrix" values="0 0 0 0 0 0 0 0 0 0 0 0 0 0 0 0 0 0 0.12 0"/>
<feBlend mode="normal" in2="shape" result="effect1_innerShadow_1_2798"/>
<feColorMatrix in="SourceAlpha" type="matrix" values="0 0 0 0 0 0 0 0 0 0 0 0 0 0 0 0 0 0 127 0" result="hardAlpha"/>
<feOffset dy="0.15"/>
<feComposite in2="hardAlpha" operator="arithmetic" k2="-1" k3="1"/>
<feColorMatrix type="matrix" values="0 0 0 0 1 0 0 0 0 1 0 0 0 0 1 0 0 0 0.25 0"/>
<feBlend mode="normal" in2="effect1_innerShadow_1_2798" result="effect2_innerShadow_1_2798"/>
</filter>
<filter id="filter1_i_1_2798" x="6.49351" y="12.5007" width="10.3824" height="8.03796" filterUnits="userSpaceOnUse" color-interpolation-filters="sRGB">
<feFlood flood-opacity="0" result="BackgroundImageFix"/>
<feBlend mode="normal" in="SourceGraphic" in2="BackgroundImageFix" result="shape"/>
<feColorMatrix in="SourceAlpha" type="matrix" values="0 0 0 0 0 0 0 0 0 0 0 0 0 0 0 0 0 0 127 0" result="hardAlpha"/>
<feOffset dy="-0.15"/>
<feComposite in2="hardAlpha" operator="arithmetic" k2="-1" k3="1"/>
<feColorMatrix type="matrix" values="0 0 0 0 0 0 0 0 0 0 0 0 0 0 0 0 0 0 0.08 0"/>
<feBlend mode="normal" in2="shape" result="effect1_innerShadow_1_2798"/>
</filter>
<linearGradient id="paint0_linear_1_2798" x1="13.5649" y1="5.44315" x2="3.0763" y2="15.8852" gradientUnits="userSpaceOnUse">
<stop stop-color="#00A0FF"/>
<stop offset="0.0066" stop-color="#00A1FF"/>
<stop offset="0.2601" stop-color="#00BEFF"/>
<stop offset="0.5122" stop-color="#00D2FF"/>
<stop offset="0.7604" stop-color="#00DFFF"/>
<stop offset="1" stop-color="#00E3FF"/>
</linearGradient>
<linearGradient id="paint1_linear_1_2798" x1="21.052" y1="12.5006" x2="5.99673" y2="12.5006" gradientUnits="userSpaceOnUse">
<stop stop-color="#FFE000"/>
<stop offset="0.4087" stop-color="#FFBD00"/>
<stop offset="0.7754" stop-color="#FFA500"/>
<stop offset="1" stop-color="#FF9C00"/>
</linearGradient>
<linearGradient id="paint2_linear_1_2798" x1="15.4486" y1="13.9344" x2="1.22467" y2="28.0951" gradientUnits="userSpaceOnUse">
<stop stop-color="#FF3A44"/>
<stop offset="1" stop-color="#C31162"/>
</linearGradient>
<linearGradient id="paint3_linear_1_2798" x1="4.5406" y1="0.110557" x2="10.892" y2="6.4337" gradientUnits="userSpaceOnUse">
<stop stop-color="#32A071"/>
<stop offset="0.0685" stop-color="#2DA771"/>
<stop offset="0.4762" stop-color="#15CF74"/>
<stop offset="0.8009" stop-color="#06E775"/>
<stop offset="1" stop-color="#00F076"/>
</linearGradient>
</defs>
</svg>
